# xmcd
#
# Track frame offsets:
#	150
#	10816
#	20958
#	32140
#	43334
#	56169
#	68492
#	75607
#	84936
#	93988
#	107355
#	120366
#	130561
#	142494
#	157023
#	166718
#	177881
#	188678
#	200166
#	211041
#	220041
#	233563
#	248478
#	262976
#	271138
#	285618
#	300780
#	307175
#
# Disc length: 4270 seconds
#
# Revision: 0
# Processed by: cddbd v1.5.2PL0 Copyright (c) Steve Scherf et al.
# Submitted via: dBpowerAMP V4.0
#
DISCID=7410ac1c
DTITLE=Ilie Udila - Ilie Udila - acordeon - vol.1 
DYEAR=2007
DGENRE=Lautaresca
TTITLE0=Cantecul Ilenutei
TTITLE1=Jocul "Trei pazeste"
TTITLE2=Cantec de dragoste de la Islaz
TTITLE3=Sarba de la Babadag
TTITLE4=Hora dinspre ziua
TTITLE5=Cantec batranesc
TTITLE6=Sarba dobrogeana
TTITLE7=Pasarica cenusie
TTITLE8=Braul lui Isar
TTITLE9=Hora din Teis
TTITLE10=Cantec de dragoste din Teleorman
TTITLE11=Breaza de la Campulung
TTITLE12=Sarba din Carbunesti
TTITLE13=Cantec de dragoste de pe vlasca
TTITLE14=Brau din Rasst
TTITLE15=Balada
TTITLE16=Hora de la Stefanesti
TTITLE17=Sarba munteneasca
TTITLE18=Hora din Branesti
TTITLE19=Joc din Galicea Mare
TTITLE20=Ursitoare , ursitoare
TTITLE21=Ca pe lunca
TTITLE22=Doina Oltului
TTITLE23=Hora mare din Maldaeni
TTITLE24=Cantec de dragoste
TTITLE25=Hora de dimineata
TTITLE26=Batuta moldoveneasca
TTITLE27=Hora din Ferentari
EXTD=
EXTT0=
EXTT1=
EXTT2=
EXTT3=
EXTT4=
EXTT5=
EXTT6=
EXTT7=
EXTT8=
EXTT9=
EXTT10=
EXTT11=
EXTT12=
EXTT13=
EXTT14=
EXTT15=
EXTT16=
EXTT17=
EXTT18=
EXTT19=
EXTT20=
EXTT21=
EXTT22=
EXTT23=
EXTT24=
EXTT25=
EXTT26=
EXTT27=
PLAYORDER=
